{"glyphs":{":":{"x_min":0,"x_max":271,"ha":271,"o":"m 134 345 q 96 345 70 368 q 45 392 45 426 q 45 461 71 483 q 97 506 136 506 q 176 506 201 483 q 226 460 226 426 q 226 390 200 368 q 175 345 134 345 z m 134 -12 q 96 -12 70 11 q 45 35 45 69 q 45 104 71 126 q 97 149 136 149 q 176 149 201 126 q 226 104 226 69 q 226 33 200 10 q 175 -12 134 -12 z"},"$":{"x_min":0,"x_max":575,"ha":575,"o":"m 329 4 l 329 -102 l 258 -102 l 258 1 q 159 1 73 46 l 73 181 q 102 158 158 139 q 214 119 258 116 l 258 294 q 144 336 102 386 q 60 436 60 507 q 60 583 114 637 q 168 691 258 700 l 258 791 l 329 791 l 329 702 q 432 697 483 669 l 483 537 q 415 579 329 588 l 329 403 q 436 364 482 315 q 529 265 529 195 q 529 114 477 64 q 425 15 329 4 z m 258 431 l 258 586 q 190 574 190 515 q 190 465 258 431 z m 329 266 l 329 118 q 399 129 399 188 q 399 236 329 266 z"},"?":{"x_min":0,"x_max":438,"ha":438,"o":"m 128 203 q 124 215 121 231 q 118 247 118 261 q 118 284 123 302 q 127 321 136 337 q 145 354 158 368 q 171 383 188 398 q 207 414 221 427 q 235 440 245 454 q 254 467 259 482 q 264 496 264 514 q 264 529 259 542 q 253 555 243 564 q 233 573 219 579 q 205 584 187 584 q 149 584 108 568 q 67 552 30 520 l 30 667 q 68 689 112 701 q 157 712 204 712 q 250 712 289 702 q 328 692 357 670 q 386 649 402 615 q 418 582 418 535 q 418 505 412 481 q 405 457 392 436 q 378 414 359 394 q 339 375 314 354 q 297 339 284 327 q 271 315 262 303 q 254 291 250 278 q 245 264 245 247 q 245 235 248 223 q 251 211 257 203 z m 200 -11 q 161 -11 135 12 q 109 37 109 70 q 109 104 135 127 q 161 150 200 150 q 238 150 264 127 q 289 104 289 70 q 289 35 264 12 q 239 -11 200 -11 z"},"<":{"x_min":0,"x_max":707,"ha":707,"o":"m 582 31 l 126 239 l 126 318 l 582 536 l 582 420 l 257 281 l 257 278 l 582 147 z"},"'":{"x_min":0,"x_max":293,"ha":293,"o":"m 210 709 l 195 493 l 97 493 l 83 709 z"},"=":{"x_min":0,"x_max":707,"ha":707,"o":"m 592 342 l 116 342 l 116 442 l 592 442 z m 592 130 l 116 130 l 116 229 l 592 229 z"},"a":{"x_min":0,"x_max":538,"ha":538,"o":"m 481 0 l 335 0 l 335 72 l 333 72 q 283 -12 184 -12 q 111 -12 70 29 q 28 70 28 139 q 28 285 200 307 l 336 325 q 336 407 247 407 q 158 407 77 354 l 77 470 q 109 487 165 500 q 221 512 267 512 q 481 512 481 299 z m 336 203 l 336 237 l 245 225 q 170 215 170 157 q 170 131 188 114 q 207 97 238 97 q 281 97 309 127 q 336 157 336 203 z"},"L":{"x_min":0,"x_max":511,"ha":511,"o":"m 497 0 l 80 0 l 80 700 l 238 700 l 238 128 l 497 128 z"},"3":{"x_min":0,"x_max":575,"ha":575,"o":"m 57 23 l 57 157 q 127 106 221 106 q 280 106 313 131 q 346 157 346 202 q 346 249 305 274 q 265 300 193 300 l 128 300 l 128 418 l 188 418 q 325 418 325 509 q 325 594 220 594 q 150 594 83 549 l 83 675 q 157 712 255 712 q 363 712 423 664 q 482 615 482 538 q 482 401 343 366 l 343 364 q 417 354 460 310 q 503 265 503 200 q 503 102 432 45 q 360 -12 233 -12 q 125 -12 57 23 z"},";":{"x_min":0,"x_max":271,"ha":271,"o":"m 137 345 q 99 345 73 369 q 48 392 48 426 q 48 461 73 484 q 99 506 138 506 q 178 506 203 483 q 228 460 228 426 q 228 390 203 368 q 178 345 137 345 z m 211 123 l 139 -124 l 19 -124 l 69 123 z"},"J":{"x_min":0,"x_max":445,"ha":445,"o":"m 372 278 q 372 137 307 62 q 242 -12 118 -12 q 63 -12 16 7 l 16 155 q 57 124 107 124 q 215 124 215 284 l 215 700 l 372 700 z"},"V":{"x_min":0,"x_max":667,"ha":667,"o":"m 663 700 l 422 0 l 243 0 l 5 700 l 175 700 l 321 213 q 333 173 335 143 l 338 143 q 341 176 353 215 l 498 700 z"},"\"":{"x_min":0,"x_max":493,"ha":493,"o":"m 407 709 l 392 492 l 294 492 l 279 709 z m 214 709 l 199 493 l 100 493 l 86 709 z"},"7":{"x_min":0,"x_max":575,"ha":575,"o":"m 534 611 q 487 527 450 453 q 413 379 385 307 q 356 235 336 160 q 316 86 304 0 l 143 0 q 156 82 179 157 q 201 233 231 304 q 260 375 296 442 q 332 510 372 574 l 47 574 l 47 700 l 534 700 z"},"S":{"x_min":0,"x_max":561,"ha":561,"o":"m 48 27 l 48 183 q 90 147 140 130 q 190 112 241 112 q 271 112 293 117 q 315 123 330 132 q 345 142 352 155 q 359 167 359 183 q 359 203 348 219 q 336 235 316 249 q 295 263 268 275 q 240 288 208 301 q 125 335 85 385 q 45 434 45 504 q 45 559 67 598 q 89 637 127 663 q 165 688 214 700 q 264 712 320 712 q 375 712 417 705 q 459 699 495 685 l 495 539 q 477 551 456 561 q 436 570 414 576 q 392 582 370 585 q 348 588 329 588 q 302 588 280 583 q 258 578 243 568 q 228 559 219 546 q 211 533 211 517 q 211 500 220 486 q 229 472 247 459 q 264 447 288 435 q 312 423 343 410 q 385 393 419 373 q 452 353 476 328 q 500 303 513 271 q 525 239 525 197 q 525 138 503 98 q 481 59 443 34 q 405 9 354 -1 q 304 -12 248 -12 q 190 -12 138 -2 q 86 7 48 27 z"},"}":{"x_min":0,"x_max":369,"ha":369,"o":"m 318 226 q 243 226 243 135 l 243 22 q 243 -81 196 -120 q 148 -159 41 -159 l 41 -68 q 82 -68 101 -48 q 119 -28 119 19 l 119 123 q 119 240 194 269 l 194 271 q 119 302 119 424 l 119 524 q 119 609 41 609 l 41 700 q 147 700 195 659 q 243 619 243 520 l 243 408 q 243 316 318 316 z"},"Z":{"x_min":0,"x_max":607,"ha":607,"o":"m 584 0 l 20 0 l 20 91 l 379 572 l 46 572 l 46 700 l 583 700 l 583 612 l 232 128 l 584 128 z"},"x":{"x_min":0,"x_max":552,"ha":552,"o":"m 548 500 l 383 258 l 547 0 l 369 0 l 297 135 q 288 151 276 180 l 274 180 q 267 160 254 136 l 181 0 l 4 0 l 173 249 l 14 500 l 193 500 l 264 360 q 278 332 284 313 l 286 313 q 294 336 307 361 l 380 500 z"},")":{"x_min":0,"x_max":369,"ha":369,"o":"m 134 -159 l 9 -159 q 158 31 158 268 q 158 503 9 700 l 135 700 q 293 512 293 268 q 293 17 134 -159 z"},"&":{"x_min":0,"x_max":850,"ha":850,"o":"m 722 -11 q 696 -11 673 -4 q 650 2 629 14 q 608 26 590 42 q 571 58 555 76 q 537 61 511 45 q 486 30 454 17 q 422 5 383 -3 q 345 -11 301 -11 q 244 -11 195 2 q 146 16 111 43 q 76 70 56 110 q 37 150 37 203 q 37 245 52 277 q 66 310 90 334 q 114 358 145 376 q 175 394 206 405 q 191 417 176 432 q 160 448 148 466 q 136 484 128 506 q 121 527 121 551 q 121 590 136 620 q 152 649 180 670 q 208 690 247 701 q 286 712 333 712 q 378 712 415 701 q 453 689 479 669 q 506 649 521 621 q 536 593 536 560 q 536 505 503 466 q 471 426 412 401 q 435 390 457 376 q 478 363 499 345 q 519 328 539 305 q 558 283 577 254 q 617 305 635 362 q 652 418 652 480 q 652 499 650 516 q 647 533 643 547 l 774 547 q 779 532 782 517 q 784 502 784 482 q 784 435 774 390 q 764 345 746 304 q 728 263 702 227 q 677 190 646 158 q 670 133 695 120 q 721 106 743 106 q 767 106 791 112 q 815 117 833 126 l 833 10 q 807 -1 781 -6 q 754 -11 722 -11 z m 309 105 q 337 105 363 111 q 388 117 411 126 q 433 135 452 147 q 472 160 488 173 q 463 212 438 239 q 414 266 390 285 q 366 305 343 318 q 319 331 295 342 q 275 332 257 320 q 238 308 224 292 q 210 276 201 256 q 193 236 193 209 q 193 186 201 167 q 209 148 225 134 q 240 121 261 113 q 283 105 309 105 z m 399 549 q 399 563 394 574 q 388 585 379 593 q 370 601 358 605 q 346 609 333 609 q 317 609 303 604 q 290 599 280 591 q 270 583 265 571 q 259 560 259 546 q 259 519 276 496 q 293 473 319 459 q 335 465 349 473 q 364 480 375 491 q 386 502 392 516 q 399 530 399 549 z"},"_":{"x_min":0,"x_max":415,"ha":415,"o":"m 415 -145 l 0 -145 l 0 -87 l 415 -87 z"},"v":{"x_min":0,"x_max":542,"ha":542,"o":"m 541 500 l 355 0 l 179 0 l 2 500 l 167 500 l 254 192 q 269 140 271 103 l 273 103 q 276 138 291 189 l 380 500 z"},"O":{"x_min":0,"x_max":758,"ha":758,"o":"m 376 -12 q 226 -12 131 86 q 36 184 36 341 q 36 507 132 609 q 229 712 387 712 q 537 712 630 614 q 722 516 722 355 q 722 190 626 89 q 530 -12 376 -12 z m 383 576 q 300 576 251 514 q 202 452 202 349 q 202 245 251 185 q 300 124 379 124 q 460 124 508 183 q 556 242 556 346 q 556 455 510 516 q 463 576 383 576 z"},"(":{"x_min":0,"x_max":369,"ha":369,"o":"m 361 -159 l 235 -159 q 77 15 77 268 q 77 513 235 700 l 360 700 q 212 504 212 268 q 212 32 361 -159 z"},"C":{"x_min":0,"x_max":624,"ha":624,"o":"m 582 25 q 505 -12 382 -12 q 221 -12 128 83 q 36 177 36 335 q 36 503 140 607 q 244 712 409 712 q 512 712 582 686 l 582 534 q 512 576 422 576 q 323 576 263 514 q 202 452 202 346 q 202 245 259 184 q 316 124 413 124 q 505 124 582 169 z"},"W":{"x_min":0,"x_max":1005,"ha":1005,"o":"m 996 700 l 811 0 l 636 0 l 520 449 q 511 484 509 528 l 507 528 q 502 480 494 449 l 375 0 l 193 0 l 9 700 l 181 700 l 280 234 q 286 204 289 154 l 292 154 q 294 191 306 236 l 433 700 l 602 700 l 717 230 q 723 204 728 155 l 730 155 q 732 193 740 233 l 837 700 z"},"A":{"x_min":0,"x_max":703,"ha":703,"o":"m 696 0 l 524 0 l 474 156 l 225 156 l 176 0 l 5 0 l 260 700 l 447 700 z m 438 277 l 363 512 q 354 539 351 575 l 347 575 q 345 544 335 514 l 259 277 z"},"f":{"x_min":0,"x_max":383,"ha":383,"o":"m 391 622 q 361 634 334 634 q 260 634 260 553 l 260 500 l 374 500 l 374 386 l 260 386 l 260 0 l 106 0 l 106 386 l 22 386 l 22 500 l 106 500 l 106 562 q 106 647 162 700 q 217 752 313 752 q 360 752 391 742 z"},"Q":{"x_min":0,"x_max":758,"ha":758,"o":"m 383 576 q 300 576 251 514 q 202 452 202 349 q 202 246 250 185 q 299 124 379 124 q 461 124 508 183 q 556 242 556 346 q 556 454 510 515 q 464 576 383 576 z m 508 13 q 533 -14 556 -32 q 579 -49 602 -60 q 625 -70 650 -74 q 674 -78 703 -78 q 711 -78 720 -77 q 729 -76 739 -74 q 749 -73 757 -71 q 766 -68 773 -65 l 773 -198 q 758 -203 730 -207 q 703 -211 663 -211 q 615 -211 575 -196 q 535 -180 498 -153 q 461 -126 426 -89 q 391 -53 354 -11 q 282 -9 223 19 q 165 47 123 94 q 82 141 59 205 q 36 268 36 341 q 36 507 132 609 q 228 712 388 712 q 537 712 629 613 q 722 516 722 355 q 722 229 666 139 q 609 50 508 13 z"},"w":{"x_min":0,"x_max":797,"ha":797,"o":"m 789 500 l 645 0 l 483 0 l 409 293 q 402 322 401 357 l 398 357 q 395 319 388 295 l 309 0 l 149 0 l 8 500 l 165 500 l 234 174 q 239 151 241 118 l 244 118 q 247 152 253 176 l 339 500 l 486 500 l 563 174 q 566 162 570 117 l 573 117 q 576 146 581 174 l 646 500 z"},"-":{"x_min":0,"x_max":404,"ha":404,"o":"m 337 213 l 70 213 l 70 321 l 337 321 z"},"E":{"x_min":0,"x_max":532,"ha":532,"o":"m 500 0 l 80 0 l 80 700 l 484 700 l 484 572 l 238 572 l 238 416 l 467 416 l 467 288 l 238 288 l 238 128 l 500 128 z"},"s":{"x_min":0,"x_max":440,"ha":440,"o":"m 32 13 l 32 138 q 70 115 108 104 q 146 93 180 93 q 221 93 244 104 q 268 115 268 138 q 268 153 257 163 q 247 172 230 180 q 213 187 193 193 q 173 199 154 206 q 125 217 102 230 q 79 243 64 260 q 48 277 40 300 q 32 322 32 353 q 32 395 51 425 q 69 456 99 475 q 130 494 169 503 q 208 512 251 512 q 284 512 318 507 q 353 502 386 492 l 386 373 q 356 390 323 399 q 290 407 257 407 q 242 407 229 405 q 215 402 205 397 q 195 392 189 384 q 183 375 183 365 q 183 352 192 342 q 201 332 215 325 q 229 318 246 312 q 264 307 281 301 q 312 290 336 277 q 361 265 379 248 q 397 230 406 208 q 416 185 416 153 q 416 108 397 77 q 377 45 345 26 q 313 6 272 -3 q 230 -12 185 -12 q 103 -12 32 13 z"},">":{"x_min":0,"x_max":707,"ha":707,"o":"m 582 245 l 126 37 l 126 153 l 452 283 l 452 285 l 126 425 l 126 541 l 582 324 z"},"l":{"x_min":0,"x_max":284,"ha":284,"o":"m 219 0 l 65 0 l 65 740 l 219 740 z"},"8":{"x_min":0,"x_max":575,"ha":575,"o":"m 39 188 q 39 218 48 245 q 56 272 73 295 q 90 318 116 337 q 142 355 176 367 q 123 393 94 434 q 64 476 64 526 q 64 566 81 600 q 98 634 128 659 q 158 684 199 698 q 240 712 289 712 q 339 712 380 698 q 422 684 452 659 q 482 635 499 601 q 515 567 515 528 q 515 478 484 437 q 453 396 397 370 q 432 358 458 340 q 483 322 501 298 q 519 275 527 247 q 536 220 536 190 q 536 145 518 108 q 500 71 467 45 q 434 18 388 3 q 343 -11 288 -11 q 233 -11 188 3 q 142 18 109 44 q 76 70 58 107 q 39 144 39 188 z m 185 202 q 185 178 192 159 q 200 140 213 126 q 227 113 246 106 q 265 99 288 99 q 311 99 329 106 q 348 114 362 127 q 375 140 383 159 q 391 178 391 202 q 391 223 384 242 q 376 261 363 275 q 349 289 330 297 q 312 305 288 305 q 266 305 247 298 q 228 290 214 276 q 201 262 193 243 q 185 224 185 202 z m 207 512 q 207 493 213 477 q 220 460 231 448 q 242 437 258 430 q 273 423 290 423 q 308 423 323 430 q 338 437 349 449 q 361 461 367 477 q 374 493 374 512 q 374 531 368 547 q 361 563 350 575 q 338 587 323 594 q 308 601 290 601 q 271 601 256 594 q 241 587 230 575 q 219 563 213 547 q 207 530 207 512 z"},"\\":{"x_min":0,"x_max":436,"ha":436,"o":"m 469 -116 l 333 -116 l 0 700 l 137 700 z"},"e":{"x_min":0,"x_max":541,"ha":541,"o":"m 514 206 l 188 206 q 196 97 325 97 q 408 97 470 136 l 470 25 q 401 -12 290 -12 q 169 -12 102 55 q 35 122 35 242 q 35 367 107 439 q 180 512 285 512 q 395 512 454 447 q 514 382 514 271 z m 371 301 q 371 408 284 408 q 247 408 220 377 q 193 347 187 301 z"},"b":{"x_min":0,"x_max":620,"ha":620,"o":"m 221 58 l 219 58 l 219 0 l 65 0 l 65 740 l 219 740 l 219 425 l 221 425 q 278 512 384 512 q 480 512 533 446 q 585 379 585 264 q 585 139 524 63 q 463 -12 361 -12 q 269 -12 221 58 z m 217 269 l 217 218 q 217 169 245 138 q 272 106 316 106 q 369 106 398 147 q 427 188 427 262 q 427 324 400 359 q 374 394 324 394 q 278 394 247 359 q 217 325 217 269 z"},"%":{"x_min":0,"x_max":867,"ha":867,"o":"m 210 345 q 135 345 90 393 q 44 440 44 520 q 44 607 93 659 q 141 710 222 710 q 300 710 344 664 q 387 617 387 533 q 387 447 339 396 q 291 345 210 345 z m 219 624 q 148 624 148 525 q 148 431 216 431 q 285 431 285 529 q 285 624 219 624 z m 721 700 l 265 0 l 146 0 l 601 700 z m 646 -10 q 571 -10 526 38 q 480 85 480 165 q 480 252 529 304 q 577 355 658 355 q 736 355 780 309 q 823 263 823 179 q 823 93 775 42 q 727 -10 646 -10 z m 654 269 q 583 269 583 170 q 583 76 652 76 q 721 76 721 174 q 721 219 703 244 q 684 269 654 269 z"},"m":{"x_min":0,"x_max":916,"ha":916,"o":"m 859 0 l 705 0 l 705 285 q 705 394 625 394 q 587 394 563 361 q 539 329 539 280 l 539 0 l 385 0 l 385 288 q 385 394 306 394 q 267 394 243 363 q 219 332 219 278 l 219 0 l 65 0 l 65 500 l 219 500 l 219 422 l 221 422 q 245 462 288 487 q 332 512 383 512 q 489 512 528 419 q 585 512 696 512 q 859 512 859 311 z"},"#":{"x_min":0,"x_max":592,"ha":592,"o":"m 574 522 l 555 434 l 465 434 l 438 313 l 539 313 l 517 225 l 420 225 l 382 56 l 284 56 l 320 225 l 208 225 l 172 56 l 74 56 l 109 225 l 18 225 l 36 313 l 128 313 l 154 434 l 55 434 l 72 522 l 172 522 l 208 696 l 308 696 l 272 522 l 384 522 l 421 696 l 520 696 l 484 522 z m 366 434 l 253 434 l 226 313 l 339 313 z"},",":{"x_min":0,"x_max":271,"ha":271,"o":"m 211 123 l 139 -124 l 19 -124 l 69 123 z"},"n":{"x_min":0,"x_max":605,"ha":605,"o":"m 548 0 l 394 0 l 394 278 q 394 394 311 394 q 271 394 245 363 q 219 333 219 285 l 219 0 l 65 0 l 65 500 l 219 500 l 219 421 l 221 421 q 276 512 382 512 q 548 512 548 306 z"},"h":{"x_min":0,"x_max":602,"ha":602,"o":"m 545 0 l 391 0 l 391 284 q 391 394 311 394 q 270 394 245 363 q 219 333 219 285 l 219 0 l 65 0 l 65 740 l 219 740 l 219 426 l 221 426 q 278 512 375 512 q 545 512 545 307 z"},"z":{"x_min":0,"x_max":479,"ha":479,"o":"m 461 0 l 12 0 l 12 64 l 263 386 l 37 386 l 37 500 l 459 500 l 459 424 l 221 114 l 461 114 z"},"B":{"x_min":0,"x_max":641,"ha":641,"o":"m 80 0 l 80 700 l 335 700 q 452 700 515 657 q 578 614 578 536 q 578 479 540 437 q 501 395 442 378 l 442 376 q 517 367 561 321 q 606 275 606 209 q 606 113 537 56 q 468 0 349 0 z m 238 584 l 238 418 l 307 418 q 356 418 384 442 q 412 465 412 507 q 412 584 297 584 z m 238 301 l 238 116 l 323 116 q 378 116 409 142 q 440 167 440 211 q 440 253 409 277 q 379 301 324 301 z"},"K":{"x_min":0,"x_max":649,"ha":649,"o":"m 662 0 l 463 0 l 259 304 q 253 313 240 343 l 238 343 l 238 0 l 80 0 l 80 700 l 238 700 l 238 369 l 240 369 q 246 383 260 408 l 453 700 l 641 700 l 397 366 z"},"R":{"x_min":0,"x_max":653,"ha":653,"o":"m 667 0 l 486 0 l 377 180 q 365 201 354 217 q 343 233 331 244 q 320 256 307 262 q 295 268 280 268 l 238 268 l 238 0 l 80 0 l 80 700 l 330 700 q 585 700 585 510 q 585 473 574 442 q 562 411 542 386 q 521 361 492 343 q 463 325 428 315 l 428 313 q 443 308 458 297 q 473 286 486 271 q 500 257 512 240 q 525 223 535 207 z m 238 582 l 238 387 l 306 387 q 357 387 388 417 q 419 446 419 490 q 419 582 309 582 z"},"T":{"x_min":0,"x_max":586,"ha":586,"o":"m 572 572 l 372 572 l 372 0 l 214 0 l 214 572 l 15 572 l 15 700 l 572 700 z"},"P":{"x_min":0,"x_max":614,"ha":614,"o":"m 238 241 l 238 0 l 80 0 l 80 700 l 327 700 q 592 700 592 477 q 592 372 516 306 q 440 241 313 241 z m 238 579 l 238 361 l 300 361 q 426 361 426 471 q 426 579 300 579 z"},"|":{"x_min":0,"x_max":326,"ha":326,"o":"m 225 -235 l 102 -235 l 102 765 l 225 765 z"},"t":{"x_min":0,"x_max":389,"ha":389,"o":"m 367 6 q 333 -12 264 -12 q 101 -12 101 157 l 101 386 l 20 386 l 20 500 l 101 500 l 101 608 l 255 652 l 255 500 l 367 500 l 367 386 l 255 386 l 255 184 q 255 106 317 106 q 341 106 367 120 z"},"M":{"x_min":0,"x_max":957,"ha":957,"o":"m 878 0 l 722 0 l 722 419 q 722 487 728 569 l 724 569 q 712 504 702 476 l 538 0 l 409 0 l 242 471 q 235 490 220 569 l 216 569 q 222 465 222 387 l 222 0 l 80 0 l 80 700 l 311 700 l 454 285 q 471 235 479 185 l 482 185 q 495 243 510 286 l 653 700 l 878 700 z"},"g":{"x_min":0,"x_max":619,"ha":619,"o":"m 555 57 q 555 -82 475 -158 q 394 -235 241 -235 q 140 -235 81 -206 l 81 -76 q 158 -121 237 -121 q 315 -121 358 -80 q 401 -39 401 32 l 401 72 l 399 72 q 346 -12 243 -12 q 147 -12 91 55 q 35 123 35 236 q 35 363 98 438 q 160 512 262 512 q 354 512 399 442 l 401 442 l 401 500 l 555 500 z m 403 240 l 403 280 q 403 327 375 361 q 347 394 302 394 q 250 394 221 354 q 192 314 192 241 q 192 179 220 142 q 248 106 296 106 q 344 106 373 143 q 403 180 403 240 z"},"j":{"x_min":0,"x_max":284,"ha":284,"o":"m 143 579 q 104 579 79 602 q 54 625 54 659 q 54 694 79 716 q 104 738 143 738 q 183 738 207 716 q 232 694 232 659 q 232 624 207 602 q 183 579 143 579 z m 219 9 q 219 -102 165 -168 q 111 -235 9 -235 q -25 -235 -65 -220 l -65 -99 q -33 -117 -8 -117 q 65 -117 65 -3 l 65 500 l 219 500 z"},"i":{"x_min":0,"x_max":284,"ha":284,"o":"m 143 579 q 104 579 79 602 q 54 625 54 659 q 54 694 79 716 q 104 738 143 738 q 183 738 207 716 q 232 694 232 659 q 232 624 207 602 q 183 579 143 579 z m 219 0 l 65 0 l 65 500 l 219 500 z"},"y":{"x_min":0,"x_max":538,"ha":538,"o":"m 541 500 l 338 -40 q 265 -235 117 -235 q 61 -235 25 -222 l 25 -99 q 56 -117 92 -117 q 151 -117 175 -61 l 201 1 l -2 500 l 169 500 l 262 196 q 271 167 276 129 l 278 129 q 282 157 294 195 l 388 500 z"},"@":{"x_min":0,"x_max":954,"ha":954,"o":"m 548 181 l 545 181 q 511 88 421 88 q 354 88 312 137 q 271 186 271 272 q 271 384 328 454 q 385 524 466 524 q 539 524 557 467 l 559 467 l 564 515 l 674 515 q 652 307 652 243 q 652 175 689 175 q 728 175 753 227 q 779 278 779 362 q 779 476 706 549 q 633 622 503 622 q 363 622 271 525 q 178 427 178 287 q 178 151 260 73 q 342 -5 486 -5 q 596 -5 687 37 l 687 -56 q 604 -92 472 -92 q 292 -92 179 11 q 66 115 66 289 q 66 467 187 588 q 307 709 497 709 q 673 709 781 615 q 890 521 890 367 q 890 241 824 164 q 757 88 659 88 q 611 88 581 114 q 550 140 548 181 z m 483 439 q 439 439 411 389 q 384 339 384 273 q 384 226 403 200 q 421 174 451 174 q 497 174 523 223 q 550 272 550 355 q 550 394 531 417 q 513 439 483 439 z"},".":{"x_min":0,"x_max":271,"ha":271,"o":"m 134 -12 q 96 -12 70 11 q 45 35 45 69 q 45 104 71 126 q 97 149 136 149 q 176 149 201 126 q 226 104 226 69 q 226 33 200 10 q 175 -12 134 -12 z"},"p":{"x_min":0,"x_max":620,"ha":620,"o":"m 221 58 l 219 58 l 219 -230 l 65 -230 l 65 500 l 219 500 l 219 425 l 221 425 q 278 512 382 512 q 479 512 532 446 q 585 379 585 264 q 585 139 523 63 q 461 -12 359 -12 q 269 -12 221 58 z m 217 263 l 217 223 q 217 171 244 139 q 271 106 316 106 q 369 106 398 147 q 427 188 427 262 q 427 394 324 394 q 277 394 247 358 q 217 322 217 263 z"},"X":{"x_min":0,"x_max":655,"ha":655,"o":"m 652 0 l 465 0 l 344 228 q 337 241 330 275 l 328 275 q 325 259 312 226 l 191 0 l 3 0 l 226 350 l 22 700 l 214 700 l 314 490 q 326 465 335 431 l 337 431 q 343 452 359 492 l 470 700 l 646 700 l 436 353 z"},"*":{"x_min":0,"x_max":455,"ha":455,"o":"m 422 514 l 288 496 l 384 393 l 295 332 l 228 456 l 161 332 l 72 393 l 168 496 l 34 514 l 69 613 l 192 560 l 171 700 l 285 700 l 264 560 l 386 613 z"},"Y":{"x_min":0,"x_max":607,"ha":607,"o":"m 608 700 l 380 249 l 380 0 l 222 0 l 222 246 l 0 700 l 180 700 l 293 439 q 296 432 309 382 l 311 382 q 317 417 326 437 l 441 700 z"},"c":{"x_min":0,"x_max":480,"ha":480,"o":"m 444 18 q 392 -12 293 -12 q 178 -12 106 58 q 35 127 35 238 q 35 365 112 439 q 188 512 316 512 q 404 512 444 489 l 444 358 q 396 394 336 394 q 270 394 231 355 q 192 316 192 248 q 192 182 229 144 q 266 106 331 106 q 389 106 444 142 z"},"!":{"x_min":0,"x_max":327,"ha":327,"o":"m 244 700 l 225 218 l 100 218 l 82 700 z m 164 -11 q 125 -11 100 12 q 74 36 74 70 q 74 105 100 127 q 125 150 164 150 q 203 150 228 127 q 253 104 253 70 q 253 35 228 12 q 204 -11 164 -11 z"},"/":{"x_min":0,"x_max":443,"ha":443,"o":"m 455 700 l 114 -116 l -24 -116 l 316 700 z"},"[":{"x_min":0,"x_max":369,"ha":369,"o":"m 335 -159 l 106 -159 l 106 700 l 335 700 l 335 602 l 233 602 l 233 -61 l 335 -61 z"},"6":{"x_min":0,"x_max":575,"ha":575,"o":"m 542 233 q 542 181 524 136 q 506 91 474 58 q 441 25 397 7 q 353 -12 300 -12 q 241 -12 194 10 q 147 32 115 73 q 83 115 66 176 q 49 236 49 313 q 49 403 71 477 q 93 550 135 603 q 176 655 234 683 q 293 712 366 712 q 447 712 492 693 l 492 564 q 439 594 376 594 q 337 594 305 579 q 273 564 251 536 q 228 508 215 469 q 202 430 201 381 l 204 381 q 254 450 351 450 q 395 450 430 435 q 465 419 490 390 q 515 362 528 322 q 542 282 542 233 z m 391 223 q 391 336 299 336 q 278 336 261 328 q 244 320 231 306 q 219 292 213 273 q 206 253 206 230 q 206 204 213 182 q 220 159 232 142 q 245 125 262 116 q 279 106 300 106 q 321 106 338 115 q 354 123 366 138 q 378 154 385 176 q 391 197 391 223 z"},"r":{"x_min":0,"x_max":398,"ha":398,"o":"m 391 361 q 363 376 326 376 q 276 376 248 339 q 219 302 219 239 l 219 0 l 65 0 l 65 500 l 219 500 l 219 407 l 221 407 q 258 509 353 509 q 377 509 391 503 z"},"2":{"x_min":0,"x_max":575,"ha":575,"o":"m 209 128 l 506 128 l 506 0 l 41 0 l 41 53 q 41 106 59 149 q 77 192 104 226 q 131 260 164 286 q 196 312 226 333 q 256 355 280 375 q 303 395 319 415 q 334 435 342 455 q 350 475 350 498 q 350 543 325 566 q 299 589 247 589 q 157 589 74 517 l 74 653 q 166 712 280 712 q 333 712 376 698 q 418 684 447 658 q 477 632 492 595 q 507 559 507 513 q 507 465 492 427 q 478 390 453 359 q 428 328 396 302 q 364 277 329 253 q 306 236 284 220 q 262 204 246 188 q 229 172 219 157 q 209 142 209 128 z"},"{":{"x_min":0,"x_max":369,"ha":369,"o":"m 329 -159 q 223 -159 174 -120 q 126 -81 126 19 l 126 136 q 126 226 52 226 l 52 316 q 126 316 126 409 l 126 518 q 126 619 174 659 q 222 700 329 700 l 329 609 q 251 609 251 524 l 251 420 q 251 303 176 272 l 176 270 q 251 240 251 120 l 251 20 q 251 -28 269 -48 q 288 -68 329 -68 z"},"9":{"x_min":0,"x_max":575,"ha":575,"o":"m 531 384 q 531 291 510 217 q 490 144 450 93 q 411 42 354 15 q 298 -12 226 -12 q 140 -12 78 15 l 78 142 q 133 106 211 106 q 291 106 335 160 q 380 214 381 317 l 378 318 q 332 249 237 249 q 194 249 157 265 q 121 281 94 310 q 68 338 53 378 q 38 417 38 465 q 38 520 56 565 q 74 611 107 644 q 139 676 185 694 q 230 712 285 712 q 342 712 388 690 q 433 667 465 625 q 497 583 514 522 q 531 461 531 384 z m 375 466 q 375 493 368 516 q 361 540 349 557 q 337 574 319 584 q 302 594 281 594 q 261 594 244 585 q 227 577 215 561 q 203 546 196 524 q 189 503 189 478 q 189 451 196 429 q 203 408 215 394 q 228 379 245 371 q 263 364 284 364 q 305 364 321 372 q 338 380 350 394 q 362 407 368 426 q 375 444 375 466 z"}," ":{"x_min":0,"x_max":276,"ha":276,"o":""},"I":{"x_min":0,"x_max":317,"ha":317,"o":"m 296 700 l 296 578 l 238 578 l 238 122 l 296 122 l 296 0 l 21 0 l 21 122 l 80 122 l 80 578 l 21 578 l 21 700 z"},"H":{"x_min":0,"x_max":766,"ha":766,"o":"m 686 0 l 528 0 l 528 285 l 238 285 l 238 0 l 80 0 l 80 700 l 238 700 l 238 421 l 528 421 l 528 700 l 686 700 z"},"4":{"x_min":0,"x_max":575,"ha":575,"o":"m 465 700 l 465 259 l 549 259 l 549 144 l 465 144 l 465 0 l 324 0 l 324 144 l 19 144 l 19 264 q 60 310 103 364 q 146 417 187 475 q 228 532 262 590 q 297 647 322 700 z m 157 259 l 324 259 l 324 503 q 307 472 287 439 q 267 407 245 375 q 223 344 201 314 q 178 285 157 259 z"},"~":{"x_min":0,"x_max":707,"ha":707,"o":"m 613 377 q 610 295 569 247 q 528 199 460 199 q 408 199 334 242 q 281 273 258 273 q 198 273 195 195 l 95 195 q 98 277 139 325 q 180 373 250 373 q 305 373 366 336 q 430 298 454 298 q 479 298 496 320 q 512 341 513 377 z"},"D":{"x_min":0,"x_max":737,"ha":737,"o":"m 80 0 l 80 700 l 328 700 q 701 700 701 359 q 701 195 599 98 q 498 0 328 0 z m 238 572 l 238 128 l 316 128 q 418 128 477 189 q 535 251 535 357 q 535 457 477 514 q 419 572 315 572 z"},"^":{"x_min":0,"x_max":707,"ha":707,"o":"m 610 298 l 491 298 l 351 584 l 349 584 l 217 298 l 99 298 l 309 712 l 388 712 z"},"0":{"x_min":0,"x_max":575,"ha":575,"o":"m 284 -12 q 34 -12 34 339 q 34 521 102 616 q 169 712 298 712 q 542 712 542 355 q 542 177 475 83 q 409 -12 284 -12 z m 291 594 q 191 594 191 343 q 191 106 289 106 q 385 106 385 350 q 385 594 291 594 z"},"F":{"x_min":0,"x_max":520,"ha":520,"o":"m 485 572 l 238 572 l 238 400 l 465 400 l 465 272 l 238 272 l 238 0 l 80 0 l 80 700 l 485 700 z"},"`":{"x_min":0,"x_max":314,"ha":314,"o":"m 291 579 l 180 579 l 27 737 l 164 737 z"},"k":{"x_min":0,"x_max":559,"ha":559,"o":"m 566 0 l 381 0 l 221 248 l 219 248 l 219 0 l 65 0 l 65 740 l 219 740 l 219 269 l 221 269 l 370 500 l 553 500 l 374 265 z"},"u":{"x_min":0,"x_max":605,"ha":605,"o":"m 540 0 l 386 0 l 386 76 l 384 76 q 327 -12 231 -12 q 57 -12 57 198 l 57 500 l 211 500 l 211 212 q 211 106 295 106 q 336 106 361 135 q 386 164 386 214 l 386 500 l 540 500 z"},"]":{"x_min":0,"x_max":369,"ha":369,"o":"m 264 -159 l 34 -159 l 34 -61 l 137 -61 l 137 602 l 34 602 l 34 700 l 264 700 z"},"U":{"x_min":0,"x_max":723,"ha":723,"o":"m 651 303 q 651 -12 357 -12 q 72 -12 72 296 l 72 700 l 230 700 l 230 294 q 230 124 363 124 q 493 124 493 288 l 493 700 l 651 700 z"},"o":{"x_min":0,"x_max":611,"ha":611,"o":"m 303 -12 q 178 -12 107 58 q 35 128 35 248 q 35 372 109 442 q 184 512 310 512 q 435 512 505 442 q 576 372 576 257 q 576 132 503 60 q 430 -12 303 -12 z m 307 394 q 252 394 222 356 q 192 319 192 250 q 192 106 308 106 q 419 106 419 254 q 419 394 307 394 z"},"N":{"x_min":0,"x_max":790,"ha":790,"o":"m 710 0 l 551 0 l 262 440 q 237 479 227 498 l 225 498 q 229 461 229 385 l 229 0 l 80 0 l 80 700 l 250 700 l 528 274 q 547 245 563 217 l 565 217 q 561 241 561 313 l 561 700 l 710 700 z"},"+":{"x_min":0,"x_max":707,"ha":707,"o":"m 592 237 l 404 237 l 404 49 l 305 49 l 305 237 l 116 237 l 116 336 l 305 336 l 305 525 l 404 525 l 404 336 l 592 336 z"},"G":{"x_min":0,"x_max":711,"ha":711,"o":"m 655 47 q 552 -12 400 -12 q 231 -12 134 81 q 36 175 36 339 q 36 504 143 608 q 249 712 426 712 q 537 712 622 681 l 622 533 q 541 580 424 580 q 326 580 264 516 q 202 453 202 346 q 202 238 258 179 q 313 120 407 120 q 464 120 497 136 l 497 273 l 357 273 l 357 399 l 655 399 z"},"q":{"x_min":0,"x_max":619,"ha":619,"o":"m 554 -230 l 400 -230 l 400 69 l 398 69 q 346 -12 244 -12 q 150 -12 93 53 q 35 119 35 238 q 35 363 98 438 q 161 512 262 512 q 354 512 398 442 l 400 442 l 400 500 l 554 500 z m 403 239 l 403 279 q 403 328 375 361 q 346 394 302 394 q 250 394 221 354 q 192 313 192 242 q 192 178 220 142 q 249 106 295 106 q 344 106 373 143 q 403 179 403 239 z"},"d":{"x_min":0,"x_max":619,"ha":619,"o":"m 554 0 l 400 0 l 400 69 l 398 69 q 345 -12 243 -12 q 149 -12 92 54 q 35 120 35 239 q 35 363 98 438 q 161 512 263 512 q 360 512 398 443 l 400 443 l 400 740 l 554 740 z m 403 243 l 403 281 q 403 330 375 362 q 346 394 301 394 q 250 394 221 354 q 192 313 192 243 q 192 177 220 142 q 248 106 297 106 q 344 106 373 144 q 403 181 403 243 z"},"1":{"x_min":0,"x_max":575,"ha":575,"o":"m 406 716 l 406 0 l 252 0 l 252 542 q 240 531 222 521 q 205 511 186 503 q 166 495 145 489 q 124 483 104 481 l 104 611 q 164 628 217 656 q 270 683 313 716 z"},"5":{"x_min":0,"x_max":575,"ha":575,"o":"m 69 18 l 69 150 q 141 106 222 106 q 283 106 318 135 q 352 164 352 214 q 352 318 205 318 q 151 318 80 310 l 106 700 l 477 700 l 477 574 l 224 574 l 214 434 q 252 437 279 437 q 387 437 448 380 q 509 324 509 228 q 509 122 437 55 q 364 -12 239 -12 q 138 -12 69 18 z"}}}
